# xmcd CD database file
#
# Track frame offsets:
#	150
#	13413
#	29511
#	44595
#	57442
#	75469
#	91582
#	109498
#	123566
#	137813
#	153857
#	169748
#
# Disc length: 2532 seconds
#
# Revision: 0
# Processed by: cddbd v1.5.2PL0 Copyright (c) Steve Scherf et al.
# Submitted via: CDex 1.70beta2
#
DISCID=9f09e20c
DTITLE=Aristo Cats - Unknown CD for MusicBrainz and FreeDB
DYEAR=2006
DGENRE=Country
TTITLE0=I'M ALIVE TODAY
TTITLE1=I'LL GIVE YOU A STORY
TTITLE2=WAITING FOR YOU
TTITLE3=NEVER MEANT TO BE
TTITLE4=LEAVING ME AGAIN
TTITLE5=HOLDING ON
TTITLE6=DEEP INSIDE
TTITLE7=I WANT YOU BACK
TTITLE8=WHEN IT STARTED
TTITLE9=MEMORIES OF YOU
TTITLE10=BIG DAD WOLF
TTITLE11=LOVE TRAIN
EXTD=YEAR: 2006
EXTT0=
EXTT1=
EXTT2=
EXTT3=
EXTT4=
EXTT5=
EXTT6=
EXTT7=
EXTT8=
EXTT9=
EXTT10=
EXTT11=
PLAYORDER=
